<mxfile host="app.diagrams.net" modified="2023-10-08T03:04:55.371Z" agent="Mozilla/5.0 (Windows NT 10.0; Win64; x64) AppleWebKit/537.36 (KHTML, like Gecko) Chrome/117.0.0.0 Safari/537.36" etag="48Ss9QdKGf5WX3M--vL5" version="21.8.2" type="github">
  <diagram id="prtHgNgQTEPvFCAcTncT" name="Page-1">
    <mxGraphModel dx="1194" dy="750" grid="1" gridSize="10" guides="1" tooltips="1" connect="1" arrows="1" fold="1" page="1" pageScale="1" pageWidth="827" pageHeight="1169" math="0" shadow="0">
      <root>
        <mxCell id="0" />
        <mxCell id="1" parent="0" />
        <mxCell id="9NEMZKmk3oKaD1hxndOx-5" value="Pool" style="swimlane;childLayout=stackLayout;resizeParent=1;resizeParentMax=0;startSize=20;horizontal=0;horizontalStack=1;" vertex="1" parent="1">
          <mxGeometry x="180" y="100" width="380" height="480" as="geometry" />
        </mxCell>
        <mxCell id="9NEMZKmk3oKaD1hxndOx-6" value="安全性工程师" style="swimlane;startSize=20;" vertex="1" parent="9NEMZKmk3oKaD1hxndOx-5">
          <mxGeometry x="20" width="120" height="480" as="geometry" />
        </mxCell>
        <mxCell id="9NEMZKmk3oKaD1hxndOx-7" value="软件需求工程师 " style="swimlane;startSize=20;" vertex="1" parent="9NEMZKmk3oKaD1hxndOx-5">
          <mxGeometry x="140" width="120" height="480" as="geometry" />
        </mxCell>
        <mxCell id="9NEMZKmk3oKaD1hxndOx-8" value="构型管理工程师" style="swimlane;startSize=20;" vertex="1" parent="9NEMZKmk3oKaD1hxndOx-5">
          <mxGeometry x="260" width="120" height="480" as="geometry" />
        </mxCell>
      </root>
    </mxGraphModel>
  </diagram>
</mxfile>
